<svg width="438" height="150" viewBox="0 0 438 150" fill="none" xmlns="http://www.w3.org/2000/svg">
  <path fill-rule="evenodd" clip-rule="evenodd"
        d="M124.609 21.0005H22.1628L29.5544 0H132.001L124.609 21.0005ZM120.911 31.4987H18.4625L11.071 52.4992H113.519L120.911 31.4987ZM109.838 63H7.39156L0 84.0005H102.447L109.838 63Z"
        fill="#00A5FF"/>
  <path fill-rule="evenodd" clip-rule="evenodd"
        d="M375.691 129.86H394.32C401.386 129.86 405.668 128.199 408.666 124.463C410.165 122.593 412.306 119.272 412.306 113.044C412.306 106.815 410.165 102.455 405.883 99.3418C403.314 97.4721 399.887 96.4349 394.105 96.4349H375.691V129.86ZM351.066 150V29.9995H431.576L424.511 50.1394H375.69V76.7123H395.603C411.663 76.7123 420.013 80.4499 425.795 85.2248C430.292 88.9624 438 97.2668 438 113.667C438 129.862 430.077 138.788 423.439 143.355C415.731 148.546 407.596 150 391.108 150H351.066ZM279.764 150V50.1394H244.006V29.9995H343.358L336.292 50.1394H304.602V150H279.764ZM180.625 77.9584H194.544C198.825 77.9584 200.966 77.9584 203.109 77.334C208.89 75.6742 212.529 70.6912 212.529 63.8403C212.529 55.7423 208.676 52.2146 203.109 50.553C200.753 49.9304 198.397 49.7222 193.687 49.7222H180.625V77.9584ZM180.841 98.7193V130.275H197.97C203.11 130.275 207.819 129.861 211.245 126.746C214.671 123.632 216.17 119.688 216.17 114.497C216.17 110.553 215.1 106.816 212.959 104.117C209.318 99.7565 204.821 98.7193 197.113 98.7193H180.841ZM220.452 86.0557V86.4702C225.162 88.1318 229.658 91.0387 232.014 92.9066C239.294 98.7204 242.507 106.402 242.507 116.366C242.507 132.769 233.513 144.602 218.739 148.338C214.242 149.584 209.532 150 200.752 150H156V29.9996H195.613C203.75 29.9996 209.317 30.4159 214.242 31.6612C228.588 35.3989 238.01 44.9485 238.01 60.1038C238.01 68.2017 235.012 75.0526 230.087 79.6193C227.946 81.6954 224.948 84.1878 220.452 86.0557Z"
        fill="#022D9A"/>
</svg>
