<svg xmlns="http://www.w3.org/2000/svg" width="24" height="24"><path d="M0 9.2c0-3.2 0-4.8.6-6C1.2 2 2.1 1.1 3.1.5 4.4 0 6 0 9.1 0h5.7c3.2 0 4.8 0 6 .6 1.1.6 2 1.5 2.6 2.5.6 1.3.6 2.9.6 6v5.7c0 3.2 0 4.8-.6 6-.6 1.1-1.5 2-2.5 2.6-1.3.6-2.9.6-6 .6H9.1c-3.2 0-4.8 0-6-.6-1.1-.6-2-1.5-2.6-2.5-.6-1.3-.6-2.9-.6-6V9.1Z" fill="url(#a)"/><path d="M19.3 7.6H8l-.8 2.2h11.3l.8-2.2ZM18.2 10.9H6.9L6.1 13h11.3l.8-2.2ZM16.8 14.2h-11L5 16.4h11l.8-2.2Z" fill="#fff"/><defs><linearGradient id="a" x1="0" y1="12" x2="24" y2="12" gradientUnits="userSpaceOnUse"><stop stop-color="#0037FF"/><stop offset=".8" stop-color="#0085FF"/></linearGradient></defs></svg>
